<?xml version="1.0" encoding="utf-8"?>
<svg version="1.1" id="Layer_1"
     xmlns="http://www.w3.org/2000/svg"
     xmlns:xlink="http://www.w3.org/1999/xlink" 
     x="0px" y="0px" viewBox="50 0 375 275" 
     preserveAspectRatio="xMinYMin meet" xml:space="preserve" >
<style type="text/css">
	.st0{fill:#F0981B;}
        .st1{fill:#FFFFFF;}
	.st2{fill:#F0981B;}
</style>
<g class="st0">
    <path class="st2" d="M417.2,294.2H232c-2,0-10-0.2-15.7-6.3c-3.1-3.2-4.2-6.8-4.7-8.5c-1-3.3-1.2-8,0.2-15.5
            c3-15.7,14.2-25.8,20.4-31.5c7.8-7,16.9-12.3,20.1-14.1c1.6-0.9,3.3-1.8,5-2.7c-10.9-2.7-19.9-2.8-26.1-2.5c0,0-17.8,1-37.6,10.8
            c-5.9,2.9-11.9,6.6-17.8,11.3c-7.1,5.7-13.5,11.7-13.5,11.7c-4.9,4.6-6.7,6.6-11.6,10.9c-5.7,5.1-10.4,8.6-11.6,9.4
            c-13.8,10.3-22.8,13.4-25.2,14.2c-3.9,1.3-6,1.6-7.5,1.7c-2.8,0.2-11.2,1-16.4-4.3c-3.9-3.9-5.4-10.1-3.8-17.4
            c1.9-8.5,7.5-14.7,12.2-19.5c1.8-1.9,3.5-3.3,4.8-4.4c4.7-4,8.7-6.7,13.3-9.7c2.7-1.8,5.6-3.5,8.6-5.3c-2.8-0.4-7-0.7-11.9-0.6
            c-19,0.5-32.9,7.5-37.7,10.3c-9.5,5.3-16.5,11.7-21.2,17.1c-3.7-10.5-5-22-3.3-33.6c5-34.8,35.3-60.9,70.5-60.9
            c0.9,0,1.9,0,2.8,0.1l3.6,0.2c5.4-35.3,35.8-62.3,72.6-62.3c10.3,0,20.2,2.1,29.1,6c26.1,11.3,44.3,37.2,44.3,67.4
            c0,0.6,0,1.3,0,1.9c0,0,0,0,0,0c0,7.3-1.3,14.7-4,22.2c3.1,0.7,7.4,2.1,12.2,4.6c13.9,7.3,20.6,19,23,23.4
            c7.4,13.4,7.7,25.8,7.7,31.9c0.1,10.2-1.9,18.4-3.6,23.7c2.7-2.8,22.5-22.4,52.5-20c2.6,0.2,27.4,2.6,44.9,23.2
            C412.2,283.6,415.4,290,417.2,294.2z"/>
    <path class="st1" d="M329.1,242.9c0.8-6.5,1.5-19.3-4.4-33.5c-9-22-27.3-32-32.6-34.6c3.6-6.1,13.6-21.1,32.9-29.7
            c34.6-15.5,66.7,3.8,68.2,4.8c26.6,16.7,32.2,44.6,33,49.4c5.3,29.5-9.2,51.6-12.2,55.8c-3.6-3.9-20.4-20.8-47.2-21.9
            C348.5,232.3,334.7,239.5,329.1,242.9z"/>
</g>
</svg>
